<svg version="1.1" id="Layer_1" xmlns="http://www.w3.org/2000/svg" x="0" y="0" viewBox="0 0 1256.3 285" style="enable-background:new 0 0 1256.3 285" xml:space="preserve"><path fill="#FFFFFF" d="M450.4 224c8.7 0 14.6-1.2 19.2-3.8 6.1-3.5 10.1-9.4 13.1-19 0-.1.1-.2.1-.3.2-.8.5-2 1.2-4.1l24.9-80.8h-69V90.7h-64.5l-2.2-1.6c-9.2-6.8-22.1-4.9-28.9 4.2-2.7 3.6-4.1 7.9-4.1 12.3 0 .9.1 1.9.2 2.8l2 14.2-13.2-5.6c-5-2.1-10.4-3.1-15.9-3.1-6.3 0-12.4 1.4-18 4.2l-8.4 4.2-2.9-8.9c-1.5-4.7-4.1-9-7.6-12.6-6.6-6.6-16.2-10.2-27.1-10.2h-29.7l1.3-9.3c.2-1 .2-1.9.2-2.9 0-11.4-9.3-20.6-20.7-20.6-8.3 0-15.8 5-19 12.6l-4 9.4-8.3-6c-10.3-7.4-22.4-11.2-36-11.2-16.2-.1-31.8 6.4-43.2 17.8-13.7 13.7-21.2 33.3-21.2 55.2s7.1 41.2 20 54c11.1 11.1 26.4 17.3 42.9 17.3 23.3-.1 41.8-9.8 53.4-28.1l15-23.8v46.2h78.6l7.2-9 6.4 5.4c3.9 3.2 6 4.2 8.5 4.8s6.3.8 11.8.8h1.2c5.9 0 11.7-1.1 17.1-3.3l11.3-4.8v6.1H432V224h18.4z"/><path fill="#FFFFFF" d="M448.2 107.8V82.6h-70c-12.7-9.5-30.8-6.9-40.3 5.8-3.7 5-5.7 11-5.7 17.3 0 1.3.1 2.6.3 3.9-6-2.5-12.5-3.8-19-3.7-7.5 0-14.9 1.7-21.6 5.1-1.9-5.9-5.2-11.4-9.6-15.8-8.1-8.1-19.8-12.6-32.9-12.6h-20.3c.2-1.3.3-2.7.3-4.1 0-15.9-12.9-28.8-28.8-28.7-11.6 0-22 6.9-26.5 17.6-11.6-8.4-25.5-12.8-40.7-12.8-18.4-.1-36 7.2-49 20.2-15.2 15.2-23.6 36.9-23.6 61s7.9 45.4 22.4 59.8c12.6 12.6 29.9 19.6 48.6 19.6 26.4 0 47.6-11.9 60.2-31.9v26.3h90.6l4.5-5.6c8.7 7.4 14.2 7.5 26.8 7.5 7 0 13.8-1.3 20.3-4v2h89.9v22.6h26.1c16.4 0 32.7-3.5 40.4-28.8l29.4-95.4-71.8-.1z"/><path fill="#231F20" d="M418.4 237.8v-22.5h-89.2c-5 1.3-10.1 2-15.2 1.9-6.3 0-11.2 0-16.2-1.1-3.4-.8-6.7-2.2-9.6-4.2l-2.7 3.4h-99.1v-15.7c-13.7 13.6-32.7 21.4-54.5 21.3-20.1 0-39-7.5-52.7-21.3-15.7-15.7-24-38.5-24-63.8 0-25.4 8.9-48.6 25.3-65.1 14-14.1 33.1-22 53-21.9 13.6-.1 27 3.4 38.7 10.3 1.2-1.8 2.6-3.5 4.1-5 6.5-6.5 15.3-10.1 24.4-10.1 9.2 0 17.9 3.6 24.4 10.1 6.1 6.1 9.7 14.2 10.1 22.7h14.3c14.4 0 27.6 5 36.9 14.3 3.6 3.6 6.5 7.7 8.7 12.2 5.9-2.2 12.2-3.3 18.5-3.2 4.4 0 8.9.5 13.2 1.5.9-7.7 4.4-14.9 9.9-20.4 6.5-6.5 15.3-10.1 24.4-10.1 6.8 0 13.4 2 19 5.7H454v25.3h73.9l-2.3 7.4s-24.7 80.1-28.8 93.6l-.6 1.9c-4.1 13.6-11.1 22.4-19.6 27.2-8.5 4.8-17.7 5.6-26.3 5.7l-31.9-.1zm11.5-34v22.5h20.3c7.8 0 14.9-.9 20.6-4.1 5.6-3.3 10.6-8.8 14.2-20.4l.1-.2s7.4-23.9 14.7-47.7l12.4-40.3h-64.1v-5.8 5.8h-5.8V88.4h-66.1l-1.5-1.2c-4-3-8.8-4.6-13.7-4.6-6.1 0-12 2.4-16.3 6.8-4.3 4.3-6.8 10.2-6.8 16.3 0 1 .1 2.1.2 3.1l1.5 10.1-9.4-4c-5.3-2.2-11-3.3-16.8-3.3-6.6 0-13.1 1.5-19 4.5l-6 3-2.1-6.3c-1.6-5.1-4.5-9.7-8.2-13.5-6.9-6.9-17-10.9-28.8-10.9h-27l1-6.6c.2-1.1.3-2.2.3-3.2 0-6.1-2.4-12-6.7-16.3-4.3-4.3-10.2-6.8-16.3-6.8-6.1 0-12 2.4-16.3 6.8-2.1 2.1-3.8 4.6-4.9 7.3l-2.8 6.7-5.9-4.2c-10.6-7.6-23.2-11.6-37.4-11.7-16.8-.1-33 6.6-44.9 18.5-14 14-21.9 34.1-21.9 56.9 0 22.9 7.5 42.6 20.7 55.7 11.5 11.6 27.3 17.9 44.5 17.9 24.7-.1 43.7-10.8 55.4-29.2l10.6-16.8v40.4h82.1l6.4-8 4.5 3.8c4 3.4 6.5 4.6 9.5 5.3 3.1.8 7.2.8 13.6.8 6.2 0 12.3-1.1 18-3.5l8-3.4v4.9l90.1.1z"/><path fill="#039648" d="M210.1 100.3h40c13.9 0 27.5 7.4 27.5 26 0 10-4.1 19.4-12.3 23.2v.3c8.4 2.4 10.8 13.4 11.5 22.1.2 3.9-1.9 17.5.9 20.8h-20.2c-1.8-3.1.3-12.2.1-14.8-.5-9.3-1.9-18.9-11.4-18.9h-15.5v33.7h-20.5v-92.4zm20.5 40.1h17.2c6.2 0 9.5-3.9 9.5-10.9s-4.6-10-10.3-10h-16.3v20.9h-.1zM301.6 164.5c.4 9.2 5.1 15.3 13.4 15.3 4.9.2 9.4-2.8 11.2-7.4h18.4c-3.6 15.5-16.4 22.3-29.8 22.3-19.5 0-32.8-13.2-32.8-35.7 0-20.6 14.7-35.3 32.3-35.3 21.5 0 32.2 18.1 31.3 40.9l-44-.1zm24.4-12.3c-.4-7.5-5.1-13.7-11.7-13.7-6.9 0-11.5 5.6-12.7 13.7H326zM352.3 125.5H371v67.2h-18.7v-67.2zM382.6 100.3h18.7v92.4h-18.7v-92.4zM411.1 100.3h18.7v92.4h-18.7v-92.4zM474.9 198.7c-4.5 14.8-11.2 16.6-23.9 16.6h-8.8v-17.9h6.5c3.9.2 7.3-2.8 7.5-6.7v-.8c0-3.6-3.6-14-4.7-17.6l-14.7-46.7h19.8l10.8 43.8h.2l10.8-43.8h19.2l-22.7 73.1zM350.3 106.1c0-6.4 5.2-11.5 11.5-11.5 6.4 0 11.5 5.2 11.5 11.5 0 6.4-5.2 11.5-11.5 11.5-6.4 0-11.5-5.1-11.5-11.5zM188.5 134.5c0 39.7-22.6 63.6-55.9 63.6-31.1 0-53.7-24.1-53.7-62.1 0-36.1 22.9-63.9 55.3-63.9 32.2-.1 54.3 25.4 54.3 62.4zm-55.6-49.3c-19 0-29.3 16.1-29.3 46.6 0 22.2 6.7 53.1 31.9 53.1 20.3 0 28.2-18.5 28.2-48 0-31.2-11.6-51.7-30.8-51.7zM212.9 79c.3-6.4-4.7-11.7-11-12-6.4-.3-11.7 4.7-12 11v1c0 .5 0 1 .1 1.5.1 1 .3 2 .7 2.9.1.3.2.5.4.8v.1l.3.6c1.7 2.9 3.7 5.5 6 7.9l-4.3 3.2 4.3 7.2s13.5-8.8 15.2-21.9c.2-.9.3-1.6.3-2.3z"/><path fill="#039648" d="M115.2 137c-1.8 1.7-2.4 4.3-1.7 6.6 0 0 1.4 5.6 8.5 5.7 3.2-.3 4.2-3.2 9.9-3.6h1v5.8c-.3 2.1-1.1 4-2.5 5.6-1.1 1.4-1 3.5.4 4.7 0 0 2.6 2.9 5.8-1 2.4-3.2 3.7-7 3.7-11-.1-1.8-.1-3.6-.1-3.6s9.8 6.3 15.7-2.6c1.2-2.4.8-5.3-.9-7.4 0 0 4.4-5-1.1-9.8-2.6-2-6.2-2-8.9-.1 0 0 4.8-8.2-2.5-12.1-5.2-2.2-8.2 1.3-8.2 1.3s-4.8-5-10.6.1c0 0-5.1 5 1.5 11.2 0 0-5.8-4.9-11.1 1.1-2.1 2.8-1.6 6.9 1.1 9.1z"/><path fill="#231F20" d="M582 107.5h-28.8l-21.5 86.4h23.8l2.9-14.4h17.8l2.9 14.4H603l-21-86.4zm-21.2 54.3 3.8-20.5c.9-5.4 1.8-11 2.2-16.4h.5c.5 5.7 1.4 11.4 2.5 17.1l3.7 19.8h-12.7zM659.7 182.6c1.8-4.2 2.7-8.7 2.8-13.3.1-2 .1-7.4.1-7.4v-54.4h-23V170c0 5.1-.7 10.9-6.8 10.9s-6.5-6.2-6.5-11.2v-62.1h-23V162c0 2.6.2 7.3.2 7.3.2 4.6 1.1 9.1 2.8 13.3 3.7 8.9 11.6 13.3 27 13.3 10.2 0 20.4-2.7 25.9-12 .2-.4.4-.8.5-1.3zM709.2 126.2h17.2v-18.8h-57.5v18.8h17.5v67.6h22.8zM790.4 150.8c0-24.1-.6-45.2-31.1-45.2s-31.1 21.1-31.1 45.2c-.1 6.2.2 12.3.9 18.4.5 4.6 1.8 9.1 3.8 13.3 4.1 8.1 12 13.3 26.6 13.3 15.1 0 22.8-5.2 26.8-13.3 1.9-4.2 3.1-8.7 3.5-13.3.5-6.1.7-12.2.6-18.4zm-23.6 4.6c0 4.6-.5 13.9-.5 13.9-.1 1.5-.3 2.9-.5 4.4-.5 3.9-2.2 7.2-6.5 7.2s-6.2-3.5-6.7-7.2c-.2-1.4-.5-4.4-.5-4.4-.5-4.7-.5-9.5-.5-14.3v-4.1c0-5.3 0-10.5.3-15.7 0-5.1 0-14.1 7.2-14.1 5.5 0 6.8 5.1 7.2 9.6.5 6.7.5 13.5.5 20.2v4.5zM1050.2 126.2h17.2v-18.8h-57.5v18.8h17.5v67.6h22.8zM841.1 160.8h7.7c17.7 0 28.7-8.7 28.7-26.7 0-20.3-11.5-26.7-30.2-26.7h-29v86.4h22.9l-.1-33zm-.1-16.2v-21.1c8.5 0 13.1 1.2 13.1 10.8 0 9-4.7 10.3-13.1 10.3zM920.6 107.4h-28.8l-21.4 86.4h23.8l2.9-14.4h17.8l2.9 14.4h24l-21.2-86.4zm-21.2 54.3 3.8-20.5c.9-5.4 1.8-11 2.2-16.4h.5c.5 5.7 1.4 11.4 2.5 17.1l3.7 19.8h-12.7zM1005.2 169.2c-.5-9.4-2.5-16.7-14.1-18.2 10.8-2.3 14.8-9.3 14.8-20.1 0-19.4-10.8-23.6-27.9-23.6h-31.7v86.4h22.9v-34.9c12.1 0 13.1 2.6 13.3 10.4 0 1.5.3 12.9.3 13.3.1 3.7.2 8 1.9 11.2h24.3v-1.2c-3.1-1.3-3.5-5.8-3.5-9.6v-.5c.1-3.1-.3-12-.3-13.2zm-36-25.5v-20.3c8.4 0 13.9.4 13.9 10.2 0 9.2-5.9 10.1-13.9 10.1zM1073.1 182.4c3.8 9.7 12.9 13.2 27.2 13.2 13.7 0 23.7-3.6 28.1-13.2 1.8-4.2 2.7-8.7 2.6-13.3v-.4c0-31.1-36.9-23.6-36.9-40.4 0-4.1 2.4-7.4 6.8-7.4 5.9 0 6.4 6.5 6.4 10.9h21.6c0-18.8-10.2-26.1-28.2-26.1-16.6 0-28.9 7.5-28.9 25.4 0 31.1 31.8 23.8 35.8 38.1.3 1 .4 2.1.4 3.2 0 4.7-2.9 8.3-7.9 8.3-6.4 0-7.1-6.4-7.2-11.5v-1.5h-21.8c0 .4-.1.9-.1 1.3v.1c-.1 4.5.6 9 2.1 13.3z"/><path fill="#FFFFFF" d="M506.2 221.8c4.3 0 7.8-3.5 7.8-7.8s-3.5-7.8-7.8-7.8-7.8 3.5-7.8 7.8c-.1 4.3 3.4 7.8 7.8 7.8-.1 0-.1 0 0 0zm0-1.5c-3.5 0-6.3-2.8-6.4-6.3 0-3.5 2.8-6.3 6.3-6.4s6.3 2.8 6.4 6.3c0 3.6-2.9 6.4-6.3 6.4zm1.8-5.6c1.5-.1 2.3-.7 2.3-2.3.1-.8-.3-1.7-1-2.2-.7-.3-1.5-.5-2.3-.4h-4.1v8.4h1.7v-3.6h1.6l1.9 3.6h1.9l-2-3.5zm-3.4-1.3v-2.3h2c.8 0 2 0 2 1.1s-.7 1.3-1.6 1.3h-2.4z"/></svg>
